<?xml version="1.0" encoding="iso-8859-1"?>
<!-- Generator: Adobe Illustrator 19.0.0, SVG Export Plug-In . SVG Version: 6.00 Build 0)  -->
<svg version="1.1" id="Capa_1" xmlns="http://www.w3.org/2000/svg" xmlns:xlink="http://www.w3.org/1999/xlink" x="0px" y="0px"
	 viewBox="0 0 512 512" style="enable-background:new 0 0 512 512;" xml:space="preserve">
<g>
	<g>
		<path d="M437.577,53.291c-7.134-9.686-17.614-16.013-29.508-17.817L177.8,0.547c-22.552-3.425-43.064,9.555-49.577,30.23h-17.549
			c-24.833,0-45.036,20.203-45.036,45.036v391.151c0,24.833,20.203,45.036,45.036,45.036h232.904
			c24.833,0,45.036-20.203,45.036-45.036v-2.912l30.298-199.75c0.673-4.435-2.377-8.575-6.812-9.248
			c-4.43-0.678-8.576,2.377-9.248,6.812l-14.237,93.864V75.813c0-10.756-3.795-20.64-10.11-28.393l27.129,4.115
			c7.604,1.153,14.303,5.199,18.864,11.391c4.561,6.192,6.438,13.789,5.285,21.393l-21.618,142.528
			c-0.673,4.435,2.377,8.575,6.812,9.248c0.412,0.063,0.823,0.093,1.228,0.093c3.947,0,7.411-2.883,8.02-6.906l21.618-142.527
			C447.647,74.861,444.712,62.976,437.577,53.291z M153.942,21.63c6.133-4.404,13.739-6.187,21.422-5.023l93.415,14.169H145.826
			C147.791,27.194,150.537,24.075,153.942,21.63z M343.579,495.756H110.674c-15.876,0-28.792-12.916-28.792-28.792V75.813
			c0-15.876,12.916-28.792,28.792-28.792h232.904c15.876,0,28.792,12.916,28.792,28.792v391.151h0.001
			C372.371,482.839,359.455,495.756,343.579,495.756z"/>
	</g>
</g>
<g>
	<g>
		<path d="M147.936,109.602l-14.62-33.572c-1.291-2.963-4.215-4.879-7.447-4.879s-6.156,1.916-7.447,4.879l-14.62,33.572
			c-1.791,4.113,0.091,8.899,4.204,10.69c4.112,1.788,8.899-0.092,10.69-4.204l7.173-16.472l7.173,16.472
			c1.331,3.057,4.317,4.881,7.451,4.881c1.082,0,2.183-0.218,3.239-0.677C147.844,118.501,149.727,113.715,147.936,109.602z"/>
	</g>
</g>
<g>
	<g>
		<path d="M344.282,420.028c-4.115-1.794-8.899,0.09-10.69,4.204l-7.173,16.472l-7.173-16.472c-1.791-4.113-6.576-5.995-10.69-4.204
			c-4.112,1.79-5.995,6.577-4.204,10.689l14.62,33.572c1.291,2.963,4.215,4.88,7.447,4.88s6.156-1.916,7.447-4.88l14.62-33.572
			C350.277,426.605,348.394,421.818,344.282,420.028z"/>
	</g>
</g>
<g>
	<g>
		<path d="M316.333,231.346l-83.463-83.463c-3.172-3.172-8.315-3.172-11.486,0l-16.447,16.447c-3.172,3.172-3.172,8.315,0,11.486
			c3.172,3.172,8.315,3.172,11.486,0l10.703-10.703l77.72,77.72c13.584,13.584,13.584,35.688-0.001,49.272
			c-13.585,13.584-35.688,13.584-49.271,0.001l-7.42-7.421c-2.324-2.324-5.816-3.018-8.852-1.761
			c-3.035,1.256-5.015,4.219-5.015,7.504V324.7c0,16.128,11.804,29.552,27.226,32.085v4.761h-68.776v-4.761
			c15.422-2.533,27.226-15.957,27.226-32.085v-34.272c0-3.285-1.979-6.247-5.015-7.504c-3.033-1.257-6.528-0.563-8.851,1.761
			l-7.42,7.42c-13.584,13.584-35.688,13.585-49.272,0.001c-13.584-13.585-13.584-35.689-0.001-49.273l43.733-43.732
			c3.172-3.172,3.172-8.315,0-11.486c-3.172-3.172-8.315-3.172-11.486,0l-43.733,43.732c-19.918,19.918-19.917,52.327,0.001,72.246
			c17.89,17.889,45.857,19.709,65.799,5.464V324.7c0,8.972-7.298,16.27-16.269,16.27c-6.041,0-10.957,4.915-10.957,10.957v17.742
			c0,4.486,3.637,8.122,8.122,8.122h85.021c4.486,0,8.122-3.636,8.122-8.122v-17.742c0-6.042-4.915-10.957-10.957-10.957
			c-8.971,0-16.269-7.298-16.269-16.27v-15.644c19.945,14.247,47.913,12.427,65.803-5.465
			C336.251,283.673,336.251,251.264,316.333,231.346z"/>
	</g>
</g>
<g>
</g>
<g>
</g>
<g>
</g>
<g>
</g>
<g>
</g>
<g>
</g>
<g>
</g>
<g>
</g>
<g>
</g>
<g>
</g>
<g>
</g>
<g>
</g>
<g>
</g>
<g>
</g>
<g>
</g>
</svg>
