<svg width="24" height="24" viewBox="0 0 24 24" fill="none" xmlns="http://www.w3.org/2000/svg">
<rect width="24" height="24" fill="white"/>
<g clip-path="url(#clip0)">
<path d="M24 8.95561L12 21.8063L0 8.95561L5.52338 3.0376H18.4766L24 8.95561Z" fill="#908AE4"/>
<path d="M24 8.95561L12 21.8063V3.0376H18.4766L24 8.95561Z" fill="#6A61E4"/>
<path d="M24 8.95561H0L5.52338 3.0376H18.4766L24 8.95561Z" fill="#B1ADEC"/>
<path d="M12 3.0376L7.51242 8.95561H0L5.52338 3.0376H12Z" fill="#A6A1E9"/>
<path d="M24 8.95561H16.4876L12 3.0376H18.4766L24 8.95561Z" fill="#A6A1E9"/>
<path d="M16.4876 8.95557L12 21.8062L7.51239 8.95557H16.4876Z" fill="#A6A1E9"/>
<path d="M16.4876 8.95557L12 21.8062V8.95557H16.4876Z" fill="#908AE4"/>
<path d="M24 8.95561H12V3.0376H18.4766L24 8.95561Z" fill="#A6A1E9"/>
<path d="M24 8.95561H16.4876L12 3.0376H18.4766L24 8.95561Z" fill="#908AE4"/>
</g>
<defs>
<clipPath id="clip0">
<rect y="3" width="24" height="18.8438" fill="white"/>
</clipPath>
</defs>
</svg>
